<svg width="56" height="56" viewBox="0 0 56 56" fill="none" xmlns="http://www.w3.org/2000/svg">
<g filter="url(#filter0_d_1_21)">
<path d="M22.7769 45.118V30.7079H33.2116V45.118C33.2116 46.7031 34.3855 48 35.8202 48H43.6462C45.081 48 46.2549 46.7031 46.2549 45.118V24.9439H50.6897C51.8897 24.9439 52.4636 23.3011 51.5505 22.4365L29.742 0.734914C28.7507 -0.244971 27.2377 -0.244971 26.2464 0.734914L4.43787 22.4365C3.55092 23.3011 4.09874 24.9439 5.29873 24.9439H9.73348V45.118C9.73348 46.7031 10.9074 48 12.3422 48H20.1682C21.6029 48 22.7769 46.7031 22.7769 45.118Z" fill="white"/>
</g>
<defs>
<filter id="filter0_d_1_21" x="0" y="0" width="56" height="56" filterUnits="userSpaceOnUse" color-interpolation-filters="sRGB">
<feFlood flood-opacity="0" result="BackgroundImageFix"/>
<feColorMatrix in="SourceAlpha" type="matrix" values="0 0 0 0 0 0 0 0 0 0 0 0 0 0 0 0 0 0 127 0" result="hardAlpha"/>
<feOffset dy="4"/>
<feGaussianBlur stdDeviation="2"/>
<feComposite in2="hardAlpha" operator="out"/>
<feColorMatrix type="matrix" values="0 0 0 0 0 0 0 0 0 0 0 0 0 0 0 0 0 0 0.36 0"/>
<feBlend mode="normal" in2="BackgroundImageFix" result="effect1_dropShadow_1_21"/>
<feBlend mode="normal" in="SourceGraphic" in2="effect1_dropShadow_1_21" result="shape"/>
</filter>
</defs>
</svg>
